<svg id="Logo_principal" data-name="Logo principal" xmlns="http://www.w3.org/2000/svg" viewBox="100 300 1100 200"><defs><style>.cls-1{fill:#066;}.cls-2{fill:#6872cd;}</style></defs><polygon class="cls-1" points="953.26 360.45 953.26 360.5 949.35 360.5 952.9 360.46 953.26 360.45"/><rect class="cls-1" x="936.23" y="360.5" width="0.01" height="0.13"/><path class="cls-1" d="M953.26,360.45a.07.07,0,0,1,0,.05h-3.9l3.55,0Z"/><polygon class="cls-1" points="130.43 351.13 135.4 357.07 135.4 349.36 130.43 351.13"/><polygon class="cls-1" points="340.35 360.66 340.35 360.7 336.44 360.7 339.99 360.67 340.35 360.66"/><rect class="cls-1" x="323.32" y="360.7" width="0.01" height="0.13"/><path class="cls-1" d="M410.57,358.59Z"/><path class="cls-1" d="M429.79,359.79h0v0Z"/><path class="cls-1" d="M446.82,359.86v0Z"/><path class="cls-1" d="M228,334.19a8.62,8.62,0,0,0-17.23,0c0,.11,0,.22,0,.33h13.53l3.66,0C228,334.39,228,334.29,228,334.19Z"/><path class="cls-1" d="M1087.08,326.2c0-.1,0-.22,0-.32a8.43,8.43,0,1,1,16.86,0,2.83,2.83,0,0,1,0,.29Z"/><path class="cls-1" d="M936.23,402.75c2.59,21.5-8.26,46.88-33.54,45.95-43.77.88-55.8-65.79-20.23-86.15,18.59-11.62,47.92-6.65,52.79,16.95,1.69,2.41.74,20.27,1,23.24,1.79-42.17-59.06-41.84-57.68,0C878,444.07,937.52,444.58,936.23,402.75Z"/><path class="cls-1" d="M952.9,360.46l-3.55,0h3.91v86.43H937.65a195.21,195.21,0,0,1-1.42-28.37,69.89,69.89,0,0,0,1.95-15.81,90.37,90.37,0,0,0-1.95-19.27V360.63h0c-.47-11.24,17.26-11.43,17-.18Z"/><path class="cls-1" d="M938.18,402.75a69.82,69.82,0,0,1-1.95,15.81V383.48A90.37,90.37,0,0,1,938.18,402.75Z"/><path class="cls-1" d="M859.05,366.3a8.43,8.43,0,0,1-8.43,8.43c-14.59-.47-25.54,10.36-29.92,22.93v50.53h-17v-87h0c-.53-11.27,17.3-11.46,17-.18h0v23.5c2.47-9.3,8.07-19.11,17.22-23.79C844.15,357.11,858.89,355.25,859.05,366.3Z"/><path class="cls-1" d="M215.78,428.32l-5-5.95v7.73Z"/><path class="cls-1" d="M210.81,334.16v88.21l5,5.95-5,1.78v-7.73L135.4,332c-3.47-4.86-14-4.37-17,0V447.14h17V357.07l-5-5.94,5-1.77v7.71l75.41,90.07H228V334.08Z"/><path class="cls-1" d="M323.32,403c2.59,21.51-8.26,46.88-33.54,46-43.77.88-55.8-65.8-20.23-86.15,18.59-11.62,47.92-6.65,52.79,16.94,1.69,2.42.74,20.28,1,23.24,1.79-42.17-59.06-41.84-57.68,0C265.08,444.28,324.61,444.79,323.32,403Z"/><path class="cls-1" d="M340.35,360.7v86.44H324.74a195.27,195.27,0,0,1-1.42-28.37A69.9,69.9,0,0,0,325.27,403a90.37,90.37,0,0,0-1.95-19.27V360.84h0C322.86,349.57,340.63,349.43,340.35,360.7Z"/><path class="cls-1" d="M325.27,403a69.9,69.9,0,0,1-1.95,15.82V383.68A90.37,90.37,0,0,1,325.27,403Z"/><path class="cls-1" d="M679.19,379.26c-9.18-23.95-42.39-27.66-62.91-16.59-22.44,11.28-29,43.59-16.5,64.42,16.85,30.93,75.64,29.94,82.71-7.76.23-10.37-15.57-11.05-16.21-.7-.55,3.73-6.43,10.45-8.65,11.29-18.06,11.81-46.23-.4-47.2-23.07H683Q683.9,390.35,679.19,379.26Zm-67.7,14.46c4.38-28,53.07-31.29,54.48,0Z"/><path class="cls-2" d="M736.6,433.29c-41.07,2.16-56-52.64-20.5-71.78a45.46,45.46,0,0,1,32.74-2.92l38.91.67a7.39,7.39,0,0,1,6,7.06c-.65,14.5-30.93,4.54-37-1C792.92,383.48,775.6,435.71,736.6,433.29ZM763.75,483c2.9-26.48-22.82-20.23-40.29-20.94-16.61,1.69-33.27-11-20.4-26.09,8.83-7.24,23-5.24,33.54-2.66a80.07,80.07,0,0,0-15.44,2c-8.85,2.07-5.62,13,2.84,11.88,28.75-.24,60.43-3.59,56.6,35.85ZM736.6,418.92c30.81,1,30.78-48.42,0-47.38C705.42,370.49,705.24,420,736.6,418.92Z"/><path class="cls-1" d="M992.48,383.83v19.11h0v15.83A79,79,0,0,1,992.48,383.83Z"/><path class="cls-1" d="M417.71,366c.2,11.06-17.9,6.48-24.3,7.37v73.82H376.55V373.32c-6.51-1.05-26.16,4-25.92-7.37-.27-11.36,19.47-6.33,25.92-7.36V336.94h0c-.47-11.17,17.18-11.28,16.84-.1h0v21.75C399.86,359.49,417.88,354.88,417.71,366Z"/><path class="cls-1" d="M512.88,360.06h.49v87.08H496.51v-30c-4.41,27.32-31.84,41.7-55.72,25-18.62-12.15-8.64-63.45-11-82.05-.15-11,17.2-11.08,17,0v52.06c.08,9.21,2.12,15.9,9.94,19.35,13.49,5.62,29.92-.8,36.2-13.58,6.18-4.8,2.74-51.15,3.55-58h0c-.45-11.26,17.4-11.18,16.83.07Z"/><path class="cls-1" d="M591.11,365.24a8.43,8.43,0,0,1-8.43,8.43c-14.6-.46-25.54,10.37-29.92,22.93v50.54h-17v-87h0c-.54-11.27,17.3-11.46,17-.19h0v23.51c2.46-9.31,8.07-19.11,17.21-23.79C576.21,356.06,591,354.19,591.11,365.24Z"/><path class="cls-1" d="M682.49,419.33a.76.76,0,0,0,0,.15h0Z"/><path class="cls-1" d="M1067.19,403c-.16,59-81.31,63.65-74.71,0-1.59,41.58,58.78,41.25,57.67,0,1.2-42.05-58.46-41.65-57.67,0C983.61,337.73,1067.32,344.51,1067.19,403Z"/><path class="cls-1" d="M992.3,418c.53.83,0,63.72.18,64.59h-17V360.94a8.21,8.21,0,1,1,16.42.2c.21,7.48.68,15.19.62,22.69A79.47,79.47,0,0,0,992.3,418Z"/><path class="cls-1" d="M1170.46,388.76v58.38H1153.6V393.72c.58-13.16-7.73-21.67-20.94-21.11-13.3-.21-25.2,9.24-28.74,21.82v52.71h-16.86V326.29l16.86-.09v57.31C1112.27,346.58,1171.72,347.76,1170.46,388.76Z"/><path class="cls-2" d="M644.42,99.22a95.1,95.1,0,1,0,95.1,95.1A95.21,95.21,0,0,0,644.42,99.22Zm0,180a84.91,84.91,0,1,1,84.91-84.91A85,85,0,0,1,644.42,279.23Z"/><path class="cls-2" d="M613.12,185.54c.16-2.74,1.41-8.59,5.31-9.35,2.74-.54,5.23,1.73,5.84,2.29.77.69,2.61,2.37,2.66,4.76.1,4.33-5.78,6.72-6.2,6.88-.92.36-4.6,1.8-6.55,0C612.93,189,613,187.05,613.12,185.54Z"/><path class="cls-2" d="M616.81,192.53a5.16,5.16,0,0,1-3.66-1.28c-1.79-1.65-1.65-4.15-1.56-5.8h0c.21-3.56,1.81-9.83,6.55-10.76,1.59-.31,4.13-.11,7.16,2.66.85.77,3.09,2.81,3.16,5.86.12,5.33-6.42,8-7.17,8.34A12.45,12.45,0,0,1,616.81,192.53Zm-2.16-6.91h0c-.08,1.26-.16,2.7.57,3.37.37.35,1.61,1,5-.3.05,0,5.3-2.11,5.22-5.42,0-1.74-1.52-3.09-2.16-3.67-2.09-1.91-3.61-2.1-4.51-1.92-2.68.52-3.92,5.14-4.08,7.93Z"/><path class="cls-2" d="M664.26,179.88c.83-2.17,4.22-3,6-3.49a4.87,4.87,0,0,1,3.16-.18c1.76.69,2.35,2.8,3,5.06.68,2.47,1.36,4.91,0,6.64a4.68,4.68,0,0,1-3,1.57C668.74,190,662.87,183.47,664.26,179.88Z"/><path class="cls-2" d="M672.78,191.05c-3.29,0-6.38-2.45-8.12-4.68-1.93-2.49-2.6-5.05-1.83-7h0c1.12-2.9,4.95-3.89,7-4.42a6.19,6.19,0,0,1,4.1-.12c2.47,1,3.19,3.57,3.89,6.07.74,2.66,1.57,5.66-.27,8a6.18,6.18,0,0,1-4,2.14A6.49,6.49,0,0,1,672.78,191.05Zm-.49-13.51a7.52,7.52,0,0,0-1.69.32c-1.31.34-4.36,1.14-4.92,2.57h0c-.35.92.19,2.51,1.4,4.06,1.73,2.23,4.3,3.69,6.11,3.47a3.06,3.06,0,0,0,2-1c.88-1.12.32-3.14-.27-5.27-.52-1.88-1-3.64-2.07-4.06A1.46,1.46,0,0,0,672.29,177.54Z"/><path class="cls-2" d="M638.86,205.52a2.49,2.49,0,0,0,.73,1.18,22.19,22.19,0,0,0,5.47,3.89l4.56.09,5.65-4.11a2.31,2.31,0,0,0,.61-1c.6-1.77-1.28-3.71-1.59-4-2-2-4.78-1.94-6.86-1.93s-4.66,0-6.73,1.92C640.44,201.83,638.39,203.7,638.86,205.52Z"/><path class="cls-2" d="M650,211.83l-5.6-.08-5.62-4.25-1-1.7h0c-.58-2.24,1.33-4.28,2.17-5.05,2.4-2.19,5.47-2.21,7.5-2.22s5.38,0,7.68,2.25c.63.63,2.65,2.87,1.87,5.19a3.51,3.51,0,0,1-.89,1.42l-.14.11Zm-4.62-2.38,3.9.07,5.26-3.82a1.35,1.35,0,0,0,.28-.45c.3-.91-.73-2.26-1.32-2.84-1.62-1.62-4.08-1.61-6.05-1.59s-4.22,0-6,1.62c-.9.82-1.71,2-1.5,2.79h0a1.51,1.51,0,0,0,.44.68A20.94,20.94,0,0,0,645.36,209.45Z"/><rect class="cls-2" x="644.63" y="210.73" width="5.15" height="3.82" transform="translate(433.05 859.34) rotate(-89.87)"/><polygon class="cls-2" points="654.81 219.33 647.15 216.81 638.04 219.24 637.25 216.29 647.25 213.62 655.76 216.43 654.81 219.33"/><path class="cls-2" d="M632.8,186.67l4.59,11.45a1,1,0,0,0,1.17.66,1,1,0,0,0,.67-1.17l-4.59-11.44a1,1,0,0,0-1.18-.67,1,1,0,0,0-.66,1.17Z"/><path class="cls-2" d="M656.07,197.93l5-12.09a1,1,0,0,0-.66-1.18,1,1,0,0,0-1.18.67l-5,12.09a1,1,0,0,0,.67,1.18,1,1,0,0,0,1.17-.67Z"/><path class="cls-2" d="M644.24,235.24h-.06c-11.19,0-18.94-6.26-28.76-14.17a73,73,0,0,1-23.31-31.7,57.09,57.09,0,0,1-4-17.92c-.46-9.31.87-31,13.76-36.14,7.33-2.91,15.54.68,17.68,1.62A28.91,28.91,0,0,1,631,146l-4.3,1a27.15,27.15,0,0,0-9.76-6.06c-2.33-.83-8-2.86-12.47-1.34-11.15,3.84-13.85,30.08-8,48.34a57.53,57.53,0,0,0,4.81,10.8c4.33,7.43,10.12,13.16,17,18.69,9.48,7.63,16.32,13.14,25.9,13.16h0c10.39,0,18.11-6.31,27.86-14.3a62,62,0,0,0,16-18.14h0a45.35,45.35,0,0,0,2.82-5.69c8.82-21.89,7.2-32.79,7.2-32.79-.8-5.35-2.32-15.52-10-18.69-6.23-2.55-14.56.24-20.91,7l-3.67-1.1a20.28,20.28,0,0,1,6.84-8.19A20.49,20.49,0,0,1,689,136.5c10.45,4.19,12.84,17.38,13.6,21.56,0,0,2.37,13.1-7.39,36-1,2.24-2,4.34-2,4.34-.34.65-.71,1.34-1.12,2.08A66.44,66.44,0,0,1,675,219.91C665,228.14,656.27,235.24,644.24,235.24Z"/><path class="cls-2" d="M667.2,142.94a115.06,115.06,0,0,0-41.71-.54l1.19,4.67a71.09,71.09,0,0,1,39.26.54Z"/><path class="cls-2" d="M626.87,196.08l-42.32-1.55c-2.45-.09-2.45,3.73,0,3.82l42.32,1.55c2.46.09,2.45-3.73,0-3.82Z"/><path class="cls-2" d="M625,200.8l-40.48,5L573,207.28a1.86,1.86,0,0,0-1.68,1.91c0,.94.77,2,1.68,1.91l40.49-5L625,204.62a1.85,1.85,0,0,0,1.68-1.91c0-1-.77-2-1.68-1.91Z"/><path class="cls-2" d="M625.27,206,602,223.64a2,2,0,0,0-.68,2.62,1.91,1.91,0,0,0,2.61.68l23.28-17.6a2,2,0,0,0,.68-2.61,1.92,1.92,0,0,0-2.61-.69Z"/><path class="cls-2" d="M672.52,198.67l42.31-1.55c2.45-.09,2.46-3.91,0-3.82l-42.31,1.54c-2.46.09-2.47,3.92,0,3.83Z"/><path class="cls-2" d="M674.27,204.38l38.21,4.34L723.33,210a1.62,1.62,0,0,0,1.58-1.64,1.66,1.66,0,0,0-1.58-1.65l-38.21-4.34-10.85-1.23a1.62,1.62,0,0,0-1.58,1.64,1.66,1.66,0,0,0,1.58,1.65Z"/><path class="cls-2" d="M672.18,209.63l23.28,17.6a1.92,1.92,0,0,0,2.61-.68,2,2,0,0,0-.68-2.62l-23.28-17.6a1.92,1.92,0,0,0-2.61.69,2,2,0,0,0,.68,2.61Z"/><path class="cls-2" d="M684.47,205c-8.3,17.14-12.59,36.57-10.72,55.61a102.57,102.57,0,0,0,4.09,20.22c.91,3,5.58,1.7,4.66-1.29A94.67,94.67,0,0,1,678.17,249a100.41,100.41,0,0,1,4.45-26.13,107.43,107.43,0,0,1,6-15.39,2.48,2.48,0,0,0-.87-3.31,2.43,2.43,0,0,0-3.3.87Z"/><path class="cls-2" d="M599.36,205a117,117,0,0,1,4.23,27.07,56.83,56.83,0,0,1-3.69,23.28,63.73,63.73,0,0,1-8.22,14.56,2.42,2.42,0,0,0,.87,3.3,2.46,2.46,0,0,0,3.3-.86,63.79,63.79,0,0,0,11.43-24.87c2-9.49,1.25-19.33-.1-28.85A111.81,111.81,0,0,0,604,203.7c-.84-3-5.51-1.72-4.66,1.29Z"/></svg>
