<svg id="Logo_principal" data-name="Logo principal" xmlns="http://www.w3.org/2000/svg" viewBox="0 0 1296 372.38"><defs><style>.cls-1{fill:#fff;}</style></defs><polygon class="cls-1" points="951.51 168.3 951.51 168.34 947.6 168.34 951.16 168.31 951.51 168.3"/><rect class="cls-1" x="934.48" y="168.34" width="0.01" height="0.13"/><path class="cls-1" d="M951.51,168.3v0H947.6l3.56,0Z"/><polygon class="cls-1" points="128.68 158.98 133.65 164.91 133.65 157.21 128.68 158.98"/><polygon class="cls-1" points="338.61 168.51 338.61 168.55 334.69 168.55 338.25 168.51 338.61 168.51"/><rect class="cls-1" x="321.57" y="168.55" width="0.01" height="0.13"/><path class="cls-1" d="M408.83,166.43h0Z"/><path class="cls-1" d="M428,167.64h0c0,.11,0,.21,0,.31Z"/><path class="cls-1" d="M445.08,167.71V168a1.93,1.93,0,0,0,0-.24Z"/><path class="cls-1" d="M226.28,142a8.61,8.61,0,1,0-17.22,0c0,.11,0,.22,0,.33H222.6l3.67,0C226.27,142.23,226.28,142.14,226.28,142Z"/><path class="cls-1" d="M1085.33,134.05c0-.11,0-.22,0-.33a8.43,8.43,0,1,1,16.86,0c0,.1,0,.2,0,.29Z"/><path class="cls-1" d="M934.48,210.59v15.82a56.73,56.73,0,0,1-5.5,14.35,30.87,30.87,0,0,1-10.83,11.44q-6.92,4.35-17.21,4.35a38.53,38.53,0,0,1-20.76-5.85,41.64,41.64,0,0,1-14.9-16.24,50.19,50.19,0,0,1-5.5-23.87,49.55,49.55,0,0,1,5.58-23.87,42.11,42.11,0,0,1,15.35-16.32,41.17,41.17,0,0,1,21.83-6q13.31,0,20.67,6.21a32.69,32.69,0,0,1,10.29,16.68c.37,1.3.69,2.63,1,4v19.26a39,39,0,0,0-3.28-16.49,24.56,24.56,0,0,0-9.77-11,29.88,29.88,0,0,0-15.7-3.91q-13.85,0-21.38,8.87t-7.54,22.54a34,34,0,0,0,3.73,16.24,27.46,27.46,0,0,0,25.19,15q9.4,0,15.89-4.17a25.58,25.58,0,0,0,9.67-11.27A38.17,38.17,0,0,0,934.48,210.59Z"/><path class="cls-1" d="M951.16,168.31l-3.56,0h3.91v86.44H935.9q-.71-6.57-1.07-11.18c-.24-3.08-.35-5.8-.35-8.17v-9l.18-.74a69.71,69.71,0,0,0,1.77-15.08,90.37,90.37,0,0,0-1.95-19.27V168.48h0v-.14a.31.31,0,0,1,0-.1,8.52,8.52,0,1,1,17,0v.06Z"/><path class="cls-1" d="M936.43,210.59a69.71,69.71,0,0,1-1.77,15.08l-.18.74V210.59h0V191.32A90.37,90.37,0,0,1,936.43,210.59Z"/><path class="cls-1" d="M857.31,174.14a8.44,8.44,0,0,1-8.44,8.43h-.08a27.82,27.82,0,0,0-15.55,4.26A33.34,33.34,0,0,0,823,197.3a43,43,0,0,0-4,8.2V256h-17V169h0a2.53,2.53,0,0,1,0-.28,8.52,8.52,0,0,1,17,0,.28.28,0,0,1,0,.09h0v23.51a45.59,45.59,0,0,1,2.66-7.46,40.16,40.16,0,0,1,5.68-9.14,28.61,28.61,0,0,1,8.87-7.19,26.59,26.59,0,0,1,12.54-2.83H849A8.43,8.43,0,0,1,857.31,174.14Z"/><path class="cls-1" d="M214,236.17q-2.49-3-5-6v7.73Z"/><path class="cls-1" d="M209.07,142v88.21q2.48,3,5,6l-5,1.77v-7.73l-75.42-90.4a12.05,12.05,0,0,0-8-3.65,12.21,12.21,0,0,0-9,3.65V255h17V164.91l-5-5.93,5-1.77v7.7L209.07,255h17.21V141.92Z"/><path class="cls-1" d="M321.57,210.8v15.81a56.44,56.44,0,0,1-5.5,14.35,30.82,30.82,0,0,1-10.83,11.45q-6.92,4.34-17.21,4.34a38.53,38.53,0,0,1-20.76-5.85,41.5,41.5,0,0,1-14.9-16.24,50.15,50.15,0,0,1-5.5-23.86,49.52,49.52,0,0,1,5.58-23.87A42.14,42.14,0,0,1,267.8,170.6a41.16,41.16,0,0,1,21.83-5.94q13.31,0,20.67,6.21a32.65,32.65,0,0,1,10.29,16.68c.37,1.3.69,2.63,1,4v19.26a39.06,39.06,0,0,0-3.28-16.5,24.65,24.65,0,0,0-9.76-11q-6.48-3.9-15.71-3.9-13.85,0-21.38,8.87T263.9,210.8A34,34,0,0,0,267.63,227a27.46,27.46,0,0,0,25.19,15c6.28,0,11.56-1.38,15.89-4.16a25.69,25.69,0,0,0,9.67-11.27A38.17,38.17,0,0,0,321.57,210.8Z"/><path class="cls-1" d="M338.6,168.55V255H323q-.71-6.55-1.07-11.18c-.24-3.07-.35-5.79-.35-8.16v-9l.18-.73a69.85,69.85,0,0,0,1.77-15.08,90.37,90.37,0,0,0-1.95-19.27V168.68h0v-.13a.41.41,0,0,1,0-.11,8.52,8.52,0,1,1,17,0Z"/><path class="cls-1" d="M323.52,210.8a69.85,69.85,0,0,1-1.77,15.08l-.18.73V210.8h0V191.53A90.37,90.37,0,0,1,323.52,210.8Z"/><path class="cls-1" d="M677.45,187.1A34.26,34.26,0,0,0,663,170.33q-9.75-5.67-24.13-5.67a49.65,49.65,0,0,0-24.31,5.85,42.77,42.77,0,0,0-16.68,16.24q-6,10.38-6,24.22,0,13.67,6.22,24a43.9,43.9,0,0,0,17,16.15,51.07,51.07,0,0,0,24.67,5.85,47.58,47.58,0,0,0,20.4-4.08,37.25,37.25,0,0,0,14-11,34.78,34.78,0,0,0,4.06-6.71,34.19,34.19,0,0,0,2.49-7.82l0-.14a8.11,8.11,0,0,0-16.21-.7,20.5,20.5,0,0,1-2.17,4.79,21.34,21.34,0,0,1-6.47,6.5c-4.39,3-9.82,4.44-16.33,4.44a32.09,32.09,0,0,1-15.35-3.56,28.26,28.26,0,0,1-10.65-9.75,32.56,32.56,0,0,1-4.87-14.2h72.57Q682.15,198.2,677.45,187.1Zm-67.7,14.47a29,29,0,0,1,10.11-16.24q7.64-6.12,19.17-6.12,10.29,0,17.39,5.76t7.8,16.6Z"/><path class="cls-1" d="M734.85,241.14a46,46,0,0,1-20.23-4.44A34.86,34.86,0,0,1,700,223.75q-5.41-8.52-5.41-20.59,0-11.88,5.32-20.49a36.12,36.12,0,0,1,14.46-13.31,44.24,44.24,0,0,1,20.5-4.7,44.75,44.75,0,0,1,6.39.44,39.24,39.24,0,0,1,5.86,1.33l38.91.68a7.25,7.25,0,0,1-.72,14.39,57.33,57.33,0,0,1-29.68-7.44l-.53-.89a42.41,42.41,0,0,1,10.47,7.72A33.05,33.05,0,0,1,772.38,191a31.43,31.43,0,0,1,2.4,12.51q0,11.72-5.24,20.23a33.8,33.8,0,0,1-14.37,12.95A45.92,45.92,0,0,1,734.85,241.14ZM762,290.83v-4.08q0-9.06-5-13t-14.55-3.9H721.72a50.37,50.37,0,0,1-11.18-1.07,22.79,22.79,0,0,1-7.63-3.1,12.72,12.72,0,0,1-4.44-5,14.59,14.59,0,0,1-1.42-6.48q0-6.92,4.26-10.47a21.5,21.5,0,0,1,10.83-4.52,47.82,47.82,0,0,1,13.31-.09l9.4,1.95a80.33,80.33,0,0,0-15.44,2q-5.32,1.42-5.32,6a5,5,0,0,0,2.13,4.25,9.86,9.86,0,0,0,6,1.6H743.9a58.22,58.22,0,0,1,18,2.57,24.37,24.37,0,0,1,12.42,8.7q4.53,6.12,4.53,16.77v7.81Zm-27.15-64.06A24.52,24.52,0,0,0,746.47,224a21.38,21.38,0,0,0,8.43-8,23.91,23.91,0,0,0,3.2-12.69,25.81,25.81,0,0,0-3.11-13,20.31,20.31,0,0,0-8.43-8.16,25,25,0,0,0-11.71-2.75,25.59,25.59,0,0,0-11.8,2.75,20.9,20.9,0,0,0-8.61,8.07,25.12,25.12,0,0,0-3.19,13.13A23.91,23.91,0,0,0,714.44,216a21.22,21.22,0,0,0,8.52,8A25.44,25.44,0,0,0,734.85,226.77Z"/><path class="cls-1" d="M990.74,191.67v19.12h0v15.82c-.07-.25-.13-.49-.19-.74a69.85,69.85,0,0,1-1.77-15.08,90,90,0,0,1,1.69-17.93C990.55,192.46,990.64,192.07,990.74,191.67Z"/><path class="cls-1" d="M416,173.8a7.36,7.36,0,0,1-7.31,7.36h-17V255H374.81V181.16H356.25a7.37,7.37,0,0,1,0-14.73h18.59V144.79h0v-.24a8.43,8.43,0,1,1,16.85,0v.14h0v21.74h17.17A7.36,7.36,0,0,1,416,173.8Z"/><path class="cls-1" d="M511.13,167.9h.49V255H494.77V225c0,.15-.07.29-.1.43a57,57,0,0,1-3.19,9.85,45.68,45.68,0,0,1-6,10.3,30.22,30.22,0,0,1-9.67,8.16,29.2,29.2,0,0,1-14.19,3.19A44.81,44.81,0,0,1,450,255.34,31.6,31.6,0,0,1,439.05,250a26.28,26.28,0,0,1-8-10.2q-3-6.48-3-16.24V168c0-.1,0-.2,0-.31a8.51,8.51,0,0,1,17,.07,1.93,1.93,0,0,1,0,.24V220q0,8.17,2.57,12.78a14.44,14.44,0,0,0,7.36,6.56,28.36,28.36,0,0,0,10.83,2q9.23,0,15.53-4.53a32.87,32.87,0,0,0,9.84-11,41.42,41.42,0,0,0,3.56-8.48V167.83h0v-.23a8.43,8.43,0,0,1,16.85,0c0,.1,0,.2,0,.3Z"/><path class="cls-1" d="M589.36,173.09a8.43,8.43,0,0,1-8.43,8.43h-.09a27.87,27.87,0,0,0-15.54,4.27A33.42,33.42,0,0,0,555,196.24a42.88,42.88,0,0,0-4,8.21V255H534V168h0c0-.1,0-.19,0-.28a8.52,8.52,0,0,1,17,0v.09h0v23.5a46,46,0,0,1,2.67-7.46,40,40,0,0,1,5.67-9.14,29.05,29.05,0,0,1,8.88-7.19,26.81,26.81,0,0,1,12.54-2.83H581A8.43,8.43,0,0,1,589.36,173.09Z"/><path class="cls-1" d="M680.74,227.18s0,.1,0,.14h0Z"/><path class="cls-1" d="M1065.44,210.8q0,13.66-5.68,24a43.32,43.32,0,0,1-15,16.24,37.78,37.78,0,0,1-20.5,5.85q-10.29,0-17.21-4.43A31.58,31.58,0,0,1,996.24,241a56,56,0,0,1-5.5-14.34V210.8A37,37,0,0,0,994,226.67a26.51,26.51,0,0,0,9.68,11.19q6.38,4.17,15.79,4.16a28.49,28.49,0,0,0,15.09-4,27.42,27.42,0,0,0,10.2-11,34.79,34.79,0,0,0,3.63-16.23q0-13.67-7.54-22.54t-21.38-8.87a28.17,28.17,0,0,0-14.82,3.9,27.47,27.47,0,0,0-10.2,11,34.91,34.91,0,0,0-3.72,16.5V191.67a44.12,44.12,0,0,1,5.32-13.53,26.8,26.8,0,0,1,10.82-9.94q6.93-3.54,17.39-3.54A37.52,37.52,0,0,1,1045,170.6,43.43,43.43,0,0,1,1059.85,187,49.74,49.74,0,0,1,1065.44,210.8Z"/><path class="cls-1" d="M990.55,225.88c.06.25.12.49.19.74v63.85h-17V168.79a8.21,8.21,0,0,1,16.42.07.53.53,0,0,1,0,.13q.32,8.74.63,17.5v5.18c-.1.4-.19.79-.27,1.2a90,90,0,0,0-1.69,17.93A69.85,69.85,0,0,0,990.55,225.88Z"/><path class="cls-1" d="M1168.71,196.6V255h-16.85V201.57a26.22,26.22,0,0,0-2.31-11.71,15.59,15.59,0,0,0-6.92-7,25.28,25.28,0,0,0-11.71-2.4,28.57,28.57,0,0,0-14.28,3.64,30.53,30.53,0,0,0-14.47,18.19V255h-16.86V134.13l16.86-.08v57.31a41,41,0,0,1,2.57-6.83,37.53,37.53,0,0,1,7.46-10.47,32.58,32.58,0,0,1,10.56-6.92,34.21,34.21,0,0,1,13.12-2.48,41.9,41.9,0,0,1,13.49,2,27.11,27.11,0,0,1,17,16.32A37.57,37.57,0,0,1,1168.71,196.6Z"/></svg>